<?xml version="1.0" encoding="UTF-8"?>
<!DOCTYPE svg PUBLIC "-//W3C//DTD SVG 1.1//EN" "http://www.w3.org/Graphics/SVG/1.1/DTD/svg11.dtd">
<!-- Creator: CorelDRAW -->
<svg xmlns="http://www.w3.org/2000/svg" xml:space="preserve" width="1000px" height="1000px" version="1.1" style="shape-rendering:geometricPrecision; text-rendering:geometricPrecision; image-rendering:optimizeQuality; fill-rule:evenodd; clip-rule:evenodd"
viewBox="0 0 44.16 44.16"
 xmlns:xlink="http://www.w3.org/1999/xlink"
 xmlns:xodm="http://www.corel.com/coreldraw/odm/2003">
 <defs>
  <style type="text/css">
   <![CDATA[
    .fil0 {fill:none}
    .fil1 {fill:white;fill-rule:nonzero}
   ]]>
  </style>
 </defs>
 <g id="Слой_x0020_1">
  <metadata id="CorelCorpID_0Corel-Layer"/>
  <g id="_2707969154784">
   <rect class="fil0" width="44.16" height="44.16"/>
   <path class="fil1" d="M31.26 23.83l6.92 6.94 0 0 0.07 0.07c0.93,0.96 1.4,2.21 1.4,3.46 0,1.28 -0.49,2.56 -1.46,3.53l-0.08 0.07c-0.96,0.93 -2.21,1.4 -3.46,1.4 -1.27,0 -2.55,-0.49 -3.53,-1.46l0 0 0 0 -0.06 -0.07 -6.41 -6.43 -0.18 -0.18c-0.05,0.03 -0.1,0.06 -0.16,0.08l-0.03 0.01c-0.19,0.1 -0.39,0.19 -0.59,0.27l-0.01 0c-0.09,0.04 -0.18,0.08 -0.27,0.11l-0.09 0.04 -0.08 0.03 -0.01 0 -0.09 0.03 -0.09 0.04 0 0c-0.09,0.03 -0.18,0.06 -0.28,0.09l-0.09 0.03 -0.08 0.03 -0.01 0 -0.09 0.03 -0.09 0.03 -0.01 0 -0.09 0.03 0 0 -0.09 0.03 -0.02 0 -0.07 0.02 -0.01 0 -0.09 0.03 -0.01 0 -0.07 0.02 -0.05 0.01 -0.12 0.04 -0.06 0.01 -0.07 0.02 -0.1 0.02 -0.02 0 -0.06 0.02 -0.01 0 -0.1 0.02 -0.01 0.01 -0.05 0.01 -0.13 0.03 0 0 -0.01 0 -0.01 0 -0.14 0.03 -0.02 0 -0.02 0 -0.12 0.03 -0.05 0.01 -0.12 0.02 -0.03 0 -0.02 0 -0.15 0.03 0 0 0 0 -0.02 0 -0.13 0.02 -0.02 0 -0.02 0.01 -0.14 0.01 -0.04 0.01 -0.13 0.02 -0.05 0 -0.13 0.02 -0.01 0 0 0 -0.03 0 -0.12 0.01 -0.03 0 -0.02 0.01 -0.14 0.01 -0.04 0c-0.1,0.01 -0.21,0.01 -0.31,0.02l-0.02 0 0 0 -0.02 0 -0.15 0.01 -0.01 0 -0.15 0 -0.05 0 -0.02 0 -0.11 0.01 -0.02 0 -0.03 0 -0.15 0c-3.83,0 -7.29,-1.55 -9.8,-4.06 -2.51,-2.51 -4.06,-5.97 -4.06,-9.8 0,-3.83 1.55,-7.29 4.06,-9.8 2.51,-2.51 5.97,-4.06 9.8,-4.06 3.83,0 7.29,1.55 9.8,4.06 2.51,2.51 4.06,5.97 4.06,9.8l0 0.17 0 0.01 0 0.01 -0.01 0.15 0 0.02 0 0.01 0 0.13 0 0.03 0 0.02 -0.01 0.12 0 0.04 0 0.02c-0.01,0.1 -0.01,0.2 -0.02,0.3l0 0.06 -0.01 0.13 -0.01 0.02 0 0.01 -0.01 0.13 0 0.04 0 0 -0.01 0.02 -0.01 0.12 -0.01 0.06 -0.01 0.13 0 0.01 -0.01 0.02 -0.01 0.13 -0.01 0.03 0 0.02 -0.02 0.12 -0.01 0.06 0 0.01 -0.01 0.08 -0.01 0.05 0 0.01 -0.02 0.14 -0.01 0.02 0 0.03 -0.03 0.12 0 0.02 0 0.02 -0.03 0.12 0 0.03 0 0.01 -0.01 0.02 -0.02 0.12 -0.01 0.02 0 0 -0.01 0.03 -0.02 0.11 -0.02 0.07 0 0.02 -0.02 0.08 -0.02 0.06 0 0.02 -0.02 0.08 0 0 -0.02 0.07 0 0.01 -0.02 0.08 -0.02 0.07 0 0 -0.02 0.08 -0.02 0.05 -0.01 0.03 -0.03 0.11 -0.01 0.04 -0.02 0.08 -0.01 0.02 -0.03 0.11 -0.02 0.05 -0.04 0.11 0 0.02 -0.03 0.07 -0.01 0.06 -0.01 0.02 -0.03 0.07 -0.02 0.06 -0.01 0.02 -0.02 0.07 -0.03 0.07 0 0.01 -0.03 0.07 0 0.01 -0.03 0.07 -0.03 0.07 0 0.01 -0.02 0.07zm-12.89 -8.15c-0.61,0 -1.1,-0.49 -1.1,-1.1 0,-0.61 0.49,-1.1 1.1,-1.1 1.45,0 2.76,0.59 3.7,1.53 0.95,0.95 1.54,2.26 1.54,3.71 0,0.61 -0.49,1.1 -1.1,1.1 -0.61,0 -1.1,-0.49 -1.1,-1.1 0,-0.84 -0.34,-1.6 -0.89,-2.15 -0.55,-0.55 -1.31,-0.89 -2.15,-0.89zm9.54 3.04c0,2.63 -1.07,5.02 -2.8,6.74 -1.72,1.73 -4.11,2.8 -6.74,2.8 -2.64,0 -5.02,-1.07 -6.75,-2.8 -1.72,-1.72 -2.79,-4.11 -2.79,-6.74 0,-2.64 1.07,-5.02 2.79,-6.75 1.73,-1.72 4.11,-2.79 6.75,-2.79 2.63,0 5.02,1.07 6.74,2.79 1.73,1.73 2.8,4.11 2.8,6.75zm-4.35 5.19c1.33,-1.33 2.15,-3.16 2.15,-5.19 0,-2.03 -0.82,-3.86 -2.15,-5.19 -1.33,-1.33 -3.16,-2.15 -5.19,-2.15 -2.03,0 -3.86,0.82 -5.19,2.15 -1.33,1.33 -2.15,3.16 -2.15,5.19 0,2.03 0.82,3.86 2.15,5.19 1.33,1.33 3.16,2.15 5.19,2.15 2.03,0 3.86,-0.82 5.19,-2.15zm2.85 6.1c2.07,2.07 4.14,4.14 6.2,6.22l0.06 0.05 0 0.01c0.55,0.54 1.26,0.81 1.98,0.81 0.7,0 1.39,-0.26 1.93,-0.77l0.05 -0.05c0.55,-0.55 0.82,-1.26 0.82,-1.98 0,-0.7 -0.26,-1.39 -0.77,-1.93l-0.05 -0.05 0 0 -6.41 -6.42 0 0 -0.01 0.02 -0.07 0.11 -0.01 0.02 -0.02 0.03 -0.05 0.09 -0.02 0.02 -0.01 0.02 -0.08 0.12 0 0.01 -0.08 0.12 -0.01 0.01 0 0 -0.01 0.01 -0.08 0.12 0 0 -0.09 0.13 -0.01 0.01 -0.09 0.13 -0.01 0.01c-0.06,0.09 -0.13,0.18 -0.2,0.26l0 0.01 -0.1 0.12 0 0 -0.09 0.12 -0.01 0.02c-0.07,0.08 -0.14,0.16 -0.21,0.25l0 0 -0.02 0.02 -0.09 0.11 -0.01 0 -0.1 0.12 0 0 -0.1 0.11 0 0.01 -0.01 0.01 -0.01 0.01 -0.1 0.11 -0.01 0 -0.09 0.1 -0.02 0.02 -0.01 0.01 -0.1 0.11 0 0 -0.01 0.01 -0.11 0.11 -0.1 0.1 -0.02 0.02 -0.01 0.01 0 0 -0.1 0.1 -0.01 0 -0.02 0.02 -0.08 0.07 -0.02 0.02 0 0.01 -0.03 0.02 -0.08 0.08 -0.01 0.01 -0.13 0.11 0 0 -0.1 0.09 -0.02 0.02 -0.01 0.01 -0.11 0.09 -0.01 0.01 -0.13 0.1 0 0.01 -0.12 0.1 -0.02 0.01 -0.11 0.09 0 0 -0.03 0.02 -0.09 0.07 -0.02 0.01 0 0.01 -0.12 0.09 -0.01 0 -0.11 0.08 -0.02 0.02 -0.01 0.01 -0.02 0.02 -0.06 0.04 -0.03 0.02zm0.2 -3.05c2.11,-2.11 3.42,-5.02 3.42,-8.24 0,-3.22 -1.31,-6.14 -3.42,-8.25 -2.11,-2.11 -5.02,-3.41 -8.24,-3.41 -3.22,0 -6.14,1.3 -8.25,3.41 -2.11,2.11 -3.41,5.03 -3.41,8.25 0,3.22 1.3,6.13 3.41,8.24 2.11,2.11 5.03,3.42 8.25,3.42 3.22,0 6.13,-1.31 8.24,-3.42z"/>
  </g>
 </g>
</svg>
