<?xml version="1.0" encoding="UTF-8"?>
<!DOCTYPE svg PUBLIC "-//W3C//DTD SVG 1.1//EN" "http://www.w3.org/Graphics/SVG/1.1/DTD/svg11.dtd">
<!-- Creator: CorelDRAW -->
<svg xmlns="http://www.w3.org/2000/svg" xml:space="preserve" width="1000px" height="1000px" version="1.1" style="shape-rendering:geometricPrecision; text-rendering:geometricPrecision; image-rendering:optimizeQuality; fill-rule:evenodd; clip-rule:evenodd"
viewBox="0 0 50.19 50.19"
 xmlns:xlink="http://www.w3.org/1999/xlink"
 xmlns:xodm="http://www.corel.com/coreldraw/odm/2003">
 <defs>
  <style type="text/css">
   <![CDATA[
    .fil0 {fill:none}
    .fil1 {fill:white;fill-rule:nonzero}
   ]]>
  </style>
 </defs>
 <g id="Слой_x0020_1">
  <metadata id="CorelCorpID_0Corel-Layer"/>
  <g id="_2707960649936">
   <rect class="fil0" width="50.19" height="50.19"/>
   <path class="fil1" d="M25.1 5.5c-3.97,0 -7.69,1.55 -10.49,4.35 -4.43,4.43 -5.6,11.21 -2.9,16.87 0.14,0.3 0.58,1.22 10.16,16.15 0.73,1.14 1.97,1.82 3.33,1.82 1.35,0 2.59,-0.69 3.32,-1.84 9.37,-14.9 9.78,-15.75 9.93,-16.07 2.74,-5.67 1.59,-12.48 -2.87,-16.93 -2.8,-2.8 -6.52,-4.35 -10.48,-4.35zm6.76 13.58c0,1.97 -0.8,3.75 -2.09,5.04 -1.29,1.29 -3.07,2.09 -5.04,2.09 -1.97,0 -3.76,-0.8 -5.05,-2.09 -1.29,-1.29 -2.09,-3.07 -2.09,-5.04 0,-1.97 0.8,-3.76 2.09,-5.05 1.29,-1.29 3.08,-2.09 5.05,-2.09 1.97,0 3.75,0.8 5.04,2.09 1.29,1.29 2.09,3.08 2.09,5.05zm-3.85 3.27c0.83,-0.83 1.35,-1.99 1.35,-3.27 0,-1.28 -0.52,-2.44 -1.35,-3.28 -0.84,-0.84 -2,-1.36 -3.28,-1.36 -1.28,0 -2.44,0.52 -3.28,1.36 -0.84,0.84 -1.36,2 -1.36,3.28 0,1.28 0.52,2.44 1.36,3.27 0.84,0.84 2,1.36 3.28,1.36 1.28,0 2.44,-0.52 3.28,-1.36zm-2.91 -14.35c3.15,0 6.31,1.21 8.71,3.62 3.81,3.8 4.61,9.48 2.39,14.08 -0.46,0.95 -7.04,11.44 -9.8,15.82 -0.28,0.45 -0.74,0.67 -1.2,0.67 -0.47,0 -0.94,-0.23 -1.23,-0.67 -2.81,-4.39 -9.54,-14.9 -10.01,-15.88 -2.18,-4.58 -1.38,-10.23 2.42,-14.02 2.4,-2.41 5.56,-3.62 8.72,-3.62z"/>
  </g>
 </g>
</svg>
