<?xml version="1.0" encoding="UTF-8"?>
<!DOCTYPE svg PUBLIC "-//W3C//DTD SVG 1.1//EN" "http://www.w3.org/Graphics/SVG/1.1/DTD/svg11.dtd">
<!-- Creator: CorelDRAW -->
<svg xmlns="http://www.w3.org/2000/svg" xml:space="preserve" width="1000px" height="1000px" version="1.1" style="shape-rendering:geometricPrecision; text-rendering:geometricPrecision; image-rendering:optimizeQuality; fill-rule:evenodd; clip-rule:evenodd"
viewBox="0 0 57.3 57.3"
 xmlns:xlink="http://www.w3.org/1999/xlink"
 xmlns:xodm="http://www.corel.com/coreldraw/odm/2003">
 <defs>
  <style type="text/css">
   <![CDATA[
    .fil0 {fill:none}
    .fil1 {fill:white;fill-rule:nonzero}
   ]]>
  </style>
 </defs>
 <g id="Слой_x0020_1">
  <metadata id="CorelCorpID_0Corel-Layer"/>
  <g id="_2707955531472">
   <rect class="fil0" width="57.3" height="57.3"/>
   <path class="fil1" d="M24.29 32.87c0,-0.13 -0.05,-0.25 -0.13,-0.33 -0.07,-0.08 -0.18,-0.13 -0.3,-0.13l-3.24 0c-0.56,0 -1.08,-0.23 -1.45,-0.6 -0.38,-0.37 -0.62,-0.89 -0.62,-1.46 0,-0.86 -0.02,-1.75 0,-2.61 -0.01,-0.32 -0.08,-0.64 -0.21,-0.94 -0.13,-0.31 -0.32,-0.59 -0.56,-0.84l0 0 -0.01 0 -0.05 -0.05c-0.51,-0.48 -1.16,-0.72 -1.82,-0.72 -0.68,0 -1.36,0.25 -1.88,0.77l0.01 0 -0.06 0.06c-0.22,0.23 -0.39,0.5 -0.51,0.78 -0.14,0.31 -0.21,0.64 -0.22,0.97l0.01 0 0 7.05c0,0.69 0.21,1.2 0.55,1.54 0.4,0.38 0.99,0.57 1.68,0.57l8.35 0c0.13,0 0.25,-0.05 0.33,-0.13 0.08,-0.08 0.13,-0.2 0.13,-0.33l0 -3.6zm-15.33 23.15l0 -2.92 0.01 -0.11 0 -2.34c-0.01,-0.05 -0.01,-0.09 -0.01,-0.14l0 -7.09c-1.16,-0.9 -2.13,-2.04 -2.82,-3.35 -0.77,-1.46 -1.21,-3.12 -1.21,-4.88l0 -5.68c0,-2.03 0.59,-3.94 1.6,-5.55 1.05,-1.66 2.55,-3 4.33,-3.85 0.06,-0.03 0.11,-0.05 0.17,-0.08 -0.35,-0.25 -0.68,-0.54 -1,-0.85l0 -0.01c-0.81,-0.8 -1.42,-1.73 -1.84,-2.73 -0.41,-0.98 -0.62,-2.03 -0.65,-3.09 0,-0.05 -0.01,-0.09 -0.01,-0.14l0 -1.38 -0.19 0c-0.7,0 -1.26,-0.57 -1.26,-1.26l0 -2.59c0,-2.2 0.89,-4.19 2.33,-5.62 1.43,-1.44 3.42,-2.33 5.62,-2.33l3.42 0c2.2,0 4.18,0.89 5.62,2.33l0 0 0 0c1.44,1.44 2.33,3.43 2.33,5.62l0 1.33 1.85 0c0.7,0 1.26,0.57 1.26,1.26 0,0.69 -0.56,1.26 -1.26,1.26l-2.7 0 0 1.38c0,0.05 0,0.1 -0.01,0.14 -0.02,1.06 -0.24,2.11 -0.65,3.09 -0.42,1 -1.03,1.93 -1.83,2.74l0 -0.01c-0.26,0.26 -0.53,0.5 -0.81,0.72 1.25,0.51 2.37,1.26 3.32,2.19l0.07 0.07c1.88,1.88 3.05,4.49 3.05,7.36l0 0.92 0.13 -0.15c0.16,-0.2 0.4,-0.34 0.69,-0.38 0.05,-0.01 0.11,-0.02 0.16,-0.02 0.51,0.01 0.96,0.36 1.04,0.85 0.05,0.27 -0.03,0.53 -0.19,0.73 -0.06,0.08 -0.29,0.35 -0.5,0.59 -0.13,0.15 -0.06,0.4 0.14,0.4 0.77,0 2.32,0 3.51,0 0.57,0 1.04,0.46 1.04,1.04l0 2.57c0,0.57 -0.44,1.04 -1.01,1.04l-5.01 0 0 11.95c0.07,0.02 0.13,0.05 0.19,0.07 0.51,0.22 0.99,0.53 1.39,0.93l0.08 0.08c0.37,0.4 0.66,0.85 0.85,1.33 0.22,0.53 0.33,1.09 0.33,1.65l0 2.91c0,0.69 -0.56,1.25 -1.25,1.25l-7.3 0 -4.47 0 -7.29 0c-0.69,0 -1.26,-0.56 -1.26,-1.25zm2.51 -7.23l6.05 0 1.43 0 0 0 0 0 0 0 0.01 0 0 0 0 0 0.76 0 0 -6.01c0,-0.45 0.24,-0.85 0.6,-1.07 0.31,-0.21 0.61,-0.44 0.89,-0.68 0.31,-0.25 0.59,-0.52 0.86,-0.79 0.48,-0.5 1.28,-0.51 1.77,-0.03 0.5,0.49 0.51,1.28 0.03,1.78 -0.34,0.35 -0.69,0.67 -1.05,0.97 -0.19,0.16 -0.39,0.32 -0.59,0.47l0 5.36 2.95 0 0 -9.67c-0.41,0.21 -0.86,0.33 -1.35,0.33l-8.35 0c-1.33,0 -2.54,-0.44 -3.42,-1.29l0 0c-0.82,-0.8 -1.33,-1.92 -1.33,-3.34l0 -1.4 -3.29 0 0 1.77c0,1.34 0.33,2.6 0.92,3.7 0.61,1.15 1.49,2.13 2.56,2.85 0.36,0.24 0.55,0.64 0.55,1.04l0 6.01zm11.56 2.98c0.14,0.44 0.21,0.89 0.21,1.34l0 1.65 4.78 0 0 -1.65c0,-0.25 -0.04,-0.49 -0.13,-0.7 -0.08,-0.19 -0.2,-0.37 -0.35,-0.53l-0.05 -0.05c-0.11,-0.11 -0.23,-0.2 -0.35,-0.28 -0.2,0.14 -0.44,0.22 -0.71,0.22l-3.4 0zm-11.55 1.44l0 1.55 9.25 0 0 -1.65c0,-0.25 -0.05,-0.48 -0.14,-0.7 -0.08,-0.21 -0.21,-0.41 -0.39,-0.58 -0.02,-0.02 -0.04,-0.04 -0.06,-0.06l-8.66 0 0 1.33 0 0.11zm11.41 -44.71l0 -0.52c0,-1.51 -0.61,-2.87 -1.59,-3.85l-0.01 0c-0.98,-0.98 -2.34,-1.59 -3.84,-1.59l-3.42 0c-1.5,0 -2.86,0.61 -3.85,1.59 -0.98,0.99 -1.59,2.35 -1.59,3.85l0 0.54c0.07,-0.02 0.13,-0.02 0.2,-0.02l14.1 0zm-0.86 3.33l-11.98 0c0.01,0.49 0.01,0.99 0,1.47 0.01,0.74 0.17,1.48 0.46,2.18 0.29,0.7 0.72,1.35 1.29,1.92 1.14,1.14 2.64,1.73 4.14,1.75 0.31,-0.02 0.6,-0.03 0.86,-0.04 1.28,-0.16 2.51,-0.73 3.48,-1.71l0 0 0 0c0.57,-0.57 1,-1.23 1.29,-1.92 0.31,-0.73 0.46,-1.5 0.47,-2.27l-0.01 0 0 -1.38zm-5.04 9.79c-0.32,0.03 -0.63,0.05 -0.95,0.05l-0.04 0c-0.63,0.05 -1.35,0.12 -2.03,0.22 -0.86,0.13 -1.64,0.3 -2.03,0.49 -1.35,0.64 -2.49,1.66 -3.29,2.92 -0.76,1.21 -1.21,2.66 -1.21,4.21l0 1.4 3.29 0 0 -3.14 0.01 0 0 -0.02c0.01,-0.66 0.15,-1.32 0.41,-1.93 0.24,-0.56 0.58,-1.09 1.02,-1.55l0.08 -0.09 0 0.01 0 -0.01c1.01,-1 2.33,-1.51 3.65,-1.51 1.28,0 2.57,0.48 3.57,1.44l0.08 0.08 0 0c0.48,0.48 0.85,1.04 1.1,1.63 0.25,0.58 0.38,1.21 0.4,1.85 0.01,0.05 0.01,0.09 0.01,0.14l0 2.09 2.8 0c0.47,0 0.92,0.11 1.32,0.31l0 -0.7c0,-2.18 -0.89,-4.15 -2.32,-5.58l-0.06 -0.07c-1.42,-1.39 -3.37,-2.25 -5.52,-2.25 -0.09,0 -0.19,0 -0.29,0.01zm24.3 3.11l0 1.52 8.57 0 0 -1.52 -8.57 0zm0 4.03l0 13.21 6.88 0 0 -13.21 -6.88 0zm-2.52 13.21l0 -13.21 -6.87 0 0 2.43 -0.94 0c0.03,-0.22 0.03,-0.44 -0.01,-0.66 -0.13,-0.83 -0.71,-1.5 -1.49,-1.77l-0.59 0c-0.7,0 -1.26,-0.56 -1.26,-1.25l0 -4.04c0,-0.69 0.56,-1.25 1.26,-1.25l2.87 0c-0.08,-0.13 -0.15,-0.26 -0.21,-0.39 -0.33,-0.73 -0.39,-1.58 -0.09,-2.38 0.01,-0.04 0.03,-0.08 0.05,-0.13 0.32,-0.74 0.89,-1.3 1.57,-1.61 0.73,-0.33 1.58,-0.39 2.38,-0.09 0.63,0.23 1.4,0.76 2.3,1.49 0.73,0.6 1.54,1.32 2.43,2.13 0.88,-0.81 1.69,-1.54 2.42,-2.13 0.9,-0.73 1.68,-1.26 2.3,-1.49 0.8,-0.3 1.65,-0.24 2.38,0.09 0.7,0.32 1.28,0.9 1.59,1.67l0.03 0.07c0.3,0.8 0.24,1.66 -0.09,2.38 -0.06,0.13 -0.13,0.26 -0.21,0.39l2.53 0c0.69,0 1.25,0.56 1.25,1.25l0 4.04c0,0.69 -0.56,1.25 -1.25,1.25l-0.44 0 0 14.47c0,0.69 -0.56,1.26 -1.26,1.26l-18.78 0c-0.69,0 -1.26,-0.57 -1.26,-1.26l0 -4.87 2.52 0 0 3.61 6.87 0zm0 -15.72l0 -1.52 -8.65 0 0 1.52 8.65 0zm-2.61 -5.19c-0.7,-0.57 -1.25,-0.97 -1.59,-1.09 -0.16,-0.06 -0.32,-0.05 -0.46,0.01 -0.13,0.06 -0.23,0.16 -0.3,0.29l-0.02 0.06c-0.05,0.16 -0.05,0.32 0.02,0.46 0.06,0.14 0.18,0.25 0.33,0.31l0.01 0c0.34,0.13 1.01,0.2 1.91,0.22l0.44 0.01 -0.34 -0.27zm9.6 -1.09c-0.34,0.12 -0.89,0.52 -1.59,1.09l-0.33 0.27 0.44 -0.01c0.87,-0.02 1.53,-0.09 1.88,-0.21l0.06 -0.02c0.14,-0.06 0.25,-0.17 0.31,-0.3 0.06,-0.13 0.07,-0.29 0.02,-0.44l-0.02 -0.06c-0.06,-0.14 -0.17,-0.25 -0.3,-0.31 -0.14,-0.06 -0.31,-0.07 -0.47,-0.01z"/>
  </g>
 </g>
</svg>
